<svg width="100" height="100" viewBox="0 0 100 100" fill="none" xmlns="http://www.w3.org/2000/svg">
<g clip-path="url(#clip0_15_450)">
<path d="M99 89.1726L76.2066 66.4632C81.544 59.6994 84.4375 51.3407 84.42 42.7368C84.42 21.3347 67.0211 4 45.5399 4C25.711 4 9.38141 18.7684 7 37.8947H16.8172C19.15 24.1916 31.1057 13.6842 45.5399 13.6842C61.6265 13.6842 74.6999 26.7095 74.6999 42.7368C74.6999 58.7642 61.6265 71.7895 45.5399 71.7895C33.7787 71.7895 23.6698 64.8168 19.0528 54.8421H8.6038C13.7068 70.2884 28.3354 81.4737 45.5399 81.4737C54.5309 81.4737 62.7929 78.4232 69.3539 73.2905L92.1474 96L99 89.1726Z" fill="#3F79E9"/>
<path d="M32.869 36.1137L38.7586 62H46.6759L52.7586 43.5725L57.3448 54.6875H67V47.375H62.1724L56.1379 32.75H48.7034L43.2966 49.1787L37.3103 23H29.3448L23.3103 42.5H-3V49.8125H28.6207L32.869 36.1137Z" fill="#3F79E9"/>
</g>
<defs>
<clipPath id="clip0_15_450">
<rect width="100" height="100" fill="white"/>
</clipPath>
</defs>
</svg>
