<svg width="37" height="37" viewBox="0 0 37 37" fill="none" xmlns="http://www.w3.org/2000/svg">
<path d="M18.5 12.6421C15.2744 12.6421 12.6421 15.2744 12.6421 18.5C12.6421 21.7255 15.2744 24.3579 18.5 24.3579C21.7256 24.3579 24.3579 21.7255 24.3579 18.5C24.3579 15.2744 21.7256 12.6421 18.5 12.6421ZM36.0693 18.5C36.0693 16.0742 36.0913 13.6704 35.9551 11.249C35.8188 8.43649 35.1772 5.94039 33.1206 3.88375C31.0595 1.82272 28.5678 1.18551 25.7553 1.04928C23.3296 0.91305 20.9257 0.935023 18.5044 0.935023C16.0786 0.935023 13.6748 0.91305 11.2534 1.04928C8.44088 1.18551 5.94479 1.82711 3.88815 3.88375C1.82711 5.94479 1.18991 8.43649 1.05368 11.249C0.917445 13.6748 0.939417 16.0786 0.939417 18.5C0.939417 20.9213 0.917445 23.3296 1.05368 25.7509C1.18991 28.5634 1.83151 31.0595 3.88815 33.1162C5.94918 35.1772 8.44088 35.8144 11.2534 35.9506C13.6792 36.0869 16.083 36.0649 18.5044 36.0649C20.9301 36.0649 23.334 36.0869 25.7553 35.9506C28.5678 35.8144 31.0639 35.1728 33.1206 33.1162C35.1816 31.0551 35.8188 28.5634 35.9551 25.7509C36.0957 23.3296 36.0693 20.9257 36.0693 18.5ZM18.5 27.5131C13.5122 27.5131 9.48678 23.4878 9.48678 18.5C9.48678 13.5122 13.5122 9.48678 18.5 9.48678C23.4878 9.48678 27.5132 13.5122 27.5132 18.5C27.5132 23.4878 23.4878 27.5131 18.5 27.5131ZM27.8823 11.2226C26.7177 11.2226 25.7773 10.2822 25.7773 9.11764C25.7773 7.95309 26.7177 7.01266 27.8823 7.01266C29.0468 7.01266 29.9873 7.95309 29.9873 9.11764C29.9876 9.39417 29.9334 9.66805 29.8278 9.92359C29.7221 10.1791 29.567 10.4113 29.3715 10.6069C29.176 10.8024 28.9438 10.9574 28.6882 11.0631C28.4327 11.1688 28.1588 11.223 27.8823 11.2226Z" fill="#3F79E9"/>
</svg>
