<svg width="44" height="35" viewBox="0 0 44 35" fill="none" xmlns="http://www.w3.org/2000/svg">
<path d="M43.3306 4.25684C41.765 4.95059 40.0831 5.41934 38.315 5.63121C40.1393 4.53957 41.5042 2.82146 42.155 0.797461C40.4409 1.81557 38.565 2.5322 36.6087 2.91621C35.2932 1.51158 33.5507 0.580573 31.6518 0.267725C29.7529 -0.0451228 27.8039 0.277695 26.1073 1.18606C24.4107 2.09443 23.0614 3.53752 22.269 5.29128C21.4766 7.04505 21.2853 9.01137 21.725 10.885C18.2519 10.7106 14.8543 9.80787 11.7526 8.23541C8.651 6.66295 5.91466 4.45589 3.72121 1.75746C2.97121 3.05121 2.53996 4.55121 2.53996 6.14871C2.53912 7.58683 2.89327 9.00292 3.57098 10.2713C4.24869 11.5398 5.22901 12.6213 6.42496 13.42C5.03798 13.3758 3.6816 13.0011 2.46871 12.3268V12.4393C2.46857 14.4564 3.16627 16.4113 4.44343 17.9725C5.72059 19.5336 7.49853 20.6048 9.47559 21.0043C8.18893 21.3526 6.83997 21.4038 5.53059 21.1543C6.08839 22.8899 7.17495 24.4075 8.63815 25.4948C10.1013 26.5821 11.8679 27.1847 13.6906 27.2181C10.5965 29.647 6.77537 30.9645 2.84184 30.9587C2.14505 30.9589 1.44885 30.9182 0.756836 30.8368C4.7496 33.404 9.39747 34.7665 14.1443 34.7612C30.2131 34.7612 38.9975 21.4525 38.9975 9.90996C38.9975 9.53496 38.9881 9.15621 38.9712 8.78121C40.6799 7.54554 42.1548 6.01539 43.3268 4.26246L43.3306 4.25684Z" fill="#3F79E9"/>
</svg>
